<svg xmlns="http://www.w3.org/2000/svg" width="110" height="110" viewBox="0 0 110 110" fill="none">

  <!-- Center all content -->
  <g transform="translate(-5, 0)">
    <g fill="#5AC8FA">

      <path d="M10 30 H18 V51 H32 V30 H40 V80 H32 V59 H18 V80 H10 V30Z"/>

      <g transform="translate(36, 28) scale(2.2)">
        <path d="M7.375 16c-0.05 -0.06665 0.1125 -0.32915 0.4875 -0.7875s0.80415 -0.94585 1.2875 -1.4625c0.55 -0.61665 1.19165 -1.3 1.925 -2.05 0.2 -0.3 0.475 -0.45 0.825 -0.45s0.64165 0.13335 0.875 0.4c0.2 0.26665 0.275 0.57085 0.225 0.9125 -0.05 0.34165 -0.23335 0.5875 -0.55 0.7375 -0.91665 0.55 -1.73335 1.03335 -2.45 1.45 -0.63335 0.35 -1.21665 0.6625 -1.75 0.9375s-0.825 0.37915 -0.875 0.3125Zm3.375 7c-0.08335 0 -0.16665 -0.01665 -0.25 -0.05 -0.08335 -0.03335 -0.15 -0.09165 -0.2 -0.175 -0.06665 -0.1 -0.13335 -0.2375 -0.2 -0.4125 -0.06665 -0.175 -0.1 -0.37915 -0.1 -0.6125 0 -0.15 0.00835 -0.2875 0.025 -0.4125s0.04165 -0.25415 0.075 -0.3875c-0.45 -0.08335 -0.82915 -0.30835 -1.1375 -0.675C8.65415 19.90835 8.5 19.48335 8.5 19c0 -0.06665 0.025 -0.24165 0.075 -0.525 -1.23335 -0.43335 -2.22915 -1.125 -2.9875 -2.075 -0.758335 -0.95 -1.245835 -2.175 -1.4625 -3.675 -0.083335 0.08335 -0.175 0.15 -0.275 0.2 -0.1 0.05 -0.216665 0.075 -0.35 0.075 -0.25 0 -0.5625 -0.1875 -0.9375 -0.5625S2 11.25 2 10c0 -1.15 0.3375 -2.1875 1.0125 -3.1125C3.6875 5.9625 4.35 5.5 5 5.5c0.21665 0 0.35415 0.09585 0.4125 0.2875 0.05835 0.19165 0.0875 0.37915 0.0875 0.5625 0.63335 -0.9 1.42915 -1.641665 2.3875 -2.225C8.84585 3.541665 9.9 3.183335 11.05 3.05c0.1 -0.483335 0.34165 -0.8625 0.725 -1.1375C12.15835 1.6375 12.56665 1.5 13 1.5v1c0.06665 -0.1 0.15 -0.183335 0.25 -0.25 0.08335 -0.066665 0.1875 -0.125 0.3125 -0.175 0.125 -0.05 0.27085 -0.075 0.4375 -0.075 0.16665 0 0.3125 0.025 0.4375 0.075 0.125 0.05 0.22915 0.108335 0.3125 0.175 0.1 0.066665 0.18335 0.15 0.25 0.25 -0.25 0 -0.45835 0.075 -0.625 0.225 -0.16665 0.15 -0.275 0.333335 -0.325 0.55 0.9 0.233335 1.73335 0.616665 2.5 1.15 0.76665 0.533335 1.41665 1.175 1.95 1.925 0 -0.18335 0.02915 -0.37085 0.0875 -0.5625S18.78335 5.5 19 5.5c0.65 0 1.3125 0.4625 1.9875 1.3875C21.6625 7.8125 22 8.85 22 10c0 1.25 -0.1875 2.0625 -0.5625 2.4375S20.75 13 20.5 13c-0.11665 0 -0.22915 -0.02085 -0.3375 -0.0625 -0.10835 -0.04165 -0.20415 -0.10415 -0.2875 -0.1875 -0.23335 1.66665 -0.80415 2.99585 -1.7125 3.9875 -0.90835 0.99165 -2.1125 1.65415 -3.6125 1.9875 0.05 0.23335 0.1625 0.42085 0.3375 0.5625 0.175 0.14165 0.37915 0.2125 0.6125 0.2125h0.575c0.11665 0 0.21665 0.03335 0.3 0.1 0.08335 0.06665 0.14165 0.15 0.175 0.25 0.08335 0.26665 0.22915 0.51665 0.4375 0.75 0.20835 0.23335 0.40415 0.425 0.5875 0.575 0.13335 0.11665 0.19585 0.25415 0.1875 0.4125 -0.00835 0.15835 -0.07915 0.27915 -0.2125 0.3625 -0.18335 0.13335 -0.41665 0.25 -0.7 0.35 -0.28335 0.1 -0.65 0.16665 -1.1 0.2 -0.08335 0 -0.16665 -0.01665 -0.25 -0.05 -0.08335 -0.03335 -0.15 -0.09165 -0.2 -0.175 -0.06665 -0.1 -0.13335 -0.2375 -0.2 -0.4125 -0.06665 -0.175 -0.1 -0.37915 -0.1 -0.6125 0 -0.15 0.00835 -0.2875 0.025 -0.4125s0.04165 -0.25415 0.075 -0.3875c-0.4 -0.08335 -0.7375 -0.26665 -1.0125 -0.55 -0.275 -0.28335 -0.45415 -0.61665 -0.5375 -1 -0.25 0.03335 -0.5 0.05835 -0.75 0.075 -0.25 0.01665 -0.51665 0.025 -0.8 0.025 -0.43335 0 -0.85415 -0.02085 -1.2625 -0.0625s-0.80415 -0.10415 -1.1875 -0.1875l-0.05 0.25c0 0.28335 0.09585 0.52085 0.2875 0.7125S10.21665 20 10.5 20h0.575c0.11665 0 0.21665 0.03335 0.3 0.1 0.08335 0.06665 0.14165 0.15 0.175 0.25 0.08335 0.26665 0.22915 0.51665 0.4375 0.75 0.20835 0.23335 0.40415 0.425 0.5875 0.575 0.13335 0.11665 0.19585 0.25415 0.1875 0.4125 -0.00835 0.15835 -0.07915 0.27915 -0.2125 0.3625 -0.18335 0.13335 -0.41665 0.25 -0.7 0.35 -0.28335 0.1 -0.65 0.16665 -1.1 0.2Zm8 -9.775c0.08335 -0.33335 0.14585 -0.68335 0.1875 -1.05 0.04165 -0.36665 0.0625 -0.75835 0.0625 -1.175 0 -1.93335 -0.68335 -3.58335 -2.05 -4.95C15.58335 4.683335 13.93335 4 12 4c-1.93335 0 -3.58335 0.683335 -4.95 2.05 -1.36665 1.36665 -2.05 3.01665 -2.05 4.95 0 0.4 0.02085 0.78335 0.0625 1.15 0.04165 0.36665 0.10415 0.71665 0.1875 1.05 0.08335 -0.33335 0.19585 -0.6625 0.3375 -0.9875 0.14165 -0.325 0.30415 -0.62915 0.4875 -0.9125 -0.1 -0.23335 -0.17915 -0.47915 -0.2375 -0.7375 -0.05835 -0.25835 -0.0875 -0.52915 -0.0875 -0.8125 0 -1.05 0.3625 -1.9375 1.0875 -2.6625C7.5625 6.3625 8.45 6 9.5 6c0.48335 0 0.9375 0.0875 1.3625 0.2625 0.425 0.175 0.80415 0.4125 1.1375 0.7125 0.33335 -0.3 0.7125 -0.5375 1.1375 -0.7125 0.425 -0.175 0.87915 -0.2625 1.3625 -0.2625 1.05 0 1.9375 0.3625 2.6625 1.0875 0.725 0.725 1.0875 1.6125 1.0875 2.6625 0 0.28335 -0.02915 0.55415 -0.0875 0.8125 -0.05835 0.25835 -0.14585 0.50415 -0.2625 0.7375 0.18335 0.28335 0.35 0.5875 0.5 0.9125 0.15 0.325 0.26665 0.6625 0.35 1.0125ZM12 18c1.45 0 2.67085 -0.225 3.6625 -0.675 0.99165 -0.45 1.7625 -1.125 2.3125 -2.025 0 -0.05 0.00415 -0.1 0.0125 -0.15 0.00835 -0.05 0.0125 -0.1 0.0125 -0.15 0 -0.5 -0.05835 -0.98335 -0.175 -1.45 -0.11665 -0.46665 -0.29165 -0.90835 -0.525 -1.325 -0.35 0.38335 -0.7625 0.69165 -1.2375 0.925 -0.475 0.23335 -0.99585 0.35 -1.5625 0.35 -0.13335 0 -0.26665 -0.00835 -0.4 -0.025 -0.13335 -0.01665 -0.26665 -0.04165 -0.4 -0.075 0.08335 -0.11665 0.14585 -0.2375 0.1875 -0.3625 0.04165 -0.125 0.07085 -0.25415 0.0875 -0.3875 0.01665 -0.03335 0.025 -0.06665 0.025 -0.1v-0.1c0.08335 0.01665 0.16665 0.02915 0.25 0.0375 0.08335 0.00835 0.16665 0.0125 0.25 0.0125 0.76665 0 1.41665 -0.26665 1.95 -0.8s0.8 -1.18335 0.8 -1.95 -0.26665 -1.41665 -0.8 -1.95S15.26665 7 14.5 7c-0.33335 0 -0.65835 0.0625 -0.975 0.1875s-0.6 0.30415 -0.85 0.5375L12 8.325l-0.675 -0.6c-0.25 -0.23335 -0.53335 -0.4125 -0.85 -0.5375S9.83335 7 9.5 7c-0.76665 0 -1.41665 0.26665 -1.95 0.8s-0.8 1.18335 -0.8 1.95c0 0.68335 0.2125 1.27085 0.6375 1.7625 0.425 0.49165 0.95415 0.80415 1.5875 0.9375l-0.75 0.825c-0.3 -0.11665 -0.57915 -0.2625 -0.8375 -0.4375 -0.25835 -0.175 -0.4875 -0.37915 -0.6875 -0.6125 -0.23335 0.41665 -0.40835 0.85835 -0.525 1.325 -0.11665 0.46665 -0.175 0.95 -0.175 1.45v0.25c0.56665 0.9 1.35 1.58335 2.35 2.05 1 0.46665 2.21665 0.7 3.65 0.7Zm2.5 -6.5c-0.41665 0 -0.77085 -0.17085 -1.0625 -0.5125 -0.29165 -0.34165 -0.4375 -0.75415 -0.4375 -1.2375 0 -0.48335 0.14585 -0.89585 0.4375 -1.2375C13.72915 8.17085 14.08335 8 14.5 8c0.41665 0 0.77085 0.17085 1.0625 0.5125 0.29165 0.34165 0.4375 0.75415 0.4375 1.2375 0 0.48335 -0.14585 0.89585 -0.4375 1.2375C15.27085 11.32915 14.91665 11.5 14.5 11.5Zm0.375 -2.25c0.11665 0 0.20835 -0.0375 0.275 -0.1125 0.06665 -0.075 0.1 -0.1625 0.1 -0.2625s-0.0375 -0.1875 -0.1125 -0.2625c-0.075 -0.075 -0.1625 -0.1125 -0.2625 -0.1125 -0.11665 0 -0.20835 0.0375 -0.275 0.1125 -0.06665 0.075 -0.1 0.1625 -0.1 0.2625 0 0.11665 0.0375 0.20835 0.1125 0.275 0.075 0.06665 0.1625 0.1 0.2625 0.1ZM9.5 11.5c-0.41665 0 -0.77085 -0.17085 -1.0625 -0.5125 -0.29165 -0.34165 -0.4375 -0.75415 -0.4375 -1.2375 0 -0.48335 0.14585 -0.89585 0.4375 -1.2375C8.72915 8.17085 9.08335 8 9.5 8c0.41665 0 0.77085 0.17085 1.0625 0.5125 0.29165 0.34165 0.4375 0.75415 0.4375 1.2375 0 0.48335 -0.14585 0.89585 -0.4375 1.2375C10.27085 11.32915 9.91665 11.5 9.5 11.5Zm0.375 -2.25c0.11665 0 0.20835 -0.0375 0.275 -0.1125 0.06665 -0.075 0.1 -0.1625 0.1 -0.2625s-0.0375 -0.1875 -0.1125 -0.2625c-0.075 -0.075 -0.1625 -0.1125 -0.2625 -0.1125 -0.11665 0 -0.20835 0.0375 -0.275 0.1125 -0.06665 0.075 -0.1 0.1625 -0.1 0.2625 0 0.11665 0.0375 0.20835 0.1125 0.275 0.075 0.06665 0.1625 0.1 0.2625 0.1Z" stroke-width="0.5"/>
      </g>

      <path d="M85 30 H95 C107 30 110 40 110 55 C110 70 107 80 95 80 H85 V30Z M93 38 V72 H95 C101 72 102 65 102 55 C102 45 101 38 95 38 H93Z"/>

    </g>
  </g>
</svg>